<?xml version="1.0" encoding="UTF-8" standalone="no"?>
<svg
   xmlns:dc="http://purl.org/dc/elements/1.1/"
   xmlns:cc="http://creativecommons.org/ns#"
   xmlns:rdf="http://www.w3.org/1999/02/22-rdf-syntax-ns#"
   xmlns:svg="http://www.w3.org/2000/svg"
   xmlns="http://www.w3.org/2000/svg"
   id="svg16"
   version="1.1"
   viewBox="0 0 37.041667 8.7312504"
   height="33"
   width="140">
  <defs
     id="defs10" />
  <metadata
     id="metadata13">
    <rdf:RDF>
      <cc:Work
         rdf:about="">
        <dc:format>image/svg+xml</dc:format>
        <dc:type
           rdf:resource="http://purl.org/dc/dcmitype/StillImage" />
        <dc:title></dc:title>
      </cc:Work>
    </rdf:RDF>
  </metadata>
  <g
     transform="translate(0,-288.26874)"
     id="layer1">
    <text
       id="text20"
       y="-25.03574"
       x="65.011909"
       style="font-style:normal;font-weight:normal;font-size:10.58333397px;line-height:1.25;font-family:sans-serif;letter-spacing:0px;word-spacing:0px;fill:#000000;fill-opacity:1;stroke:none;stroke-width:0.26458335"
       xml:space="preserve"><tspan
         style="stroke-width:0.26458335"
         y="-15.380243"
         x="65.011909"
         id="tspan18" /></text>
    <text
       id="text11"
       y="-47.714298"
       x="129.26787"
       style="font-style:normal;font-weight:normal;font-size:10.58333397px;line-height:1.25;font-family:sans-serif;letter-spacing:0px;word-spacing:0px;fill:#000000;fill-opacity:1;stroke:none;stroke-width:0.26458335"
       xml:space="preserve"><tspan
         style="font-style:normal;font-variant:normal;font-weight:normal;font-stretch:normal;font-size:50.80000305px;font-family:sans-serif;-inkscape-font-specification:'sans-serif, Normal';font-variant-ligatures:normal;font-variant-caps:normal;font-variant-numeric:normal;font-feature-settings:normal;text-align:start;writing-mode:lr-tb;text-anchor:start;stroke-width:0.26458335"
         y="-38.058804"
         x="129.26787"
         id="tspan9" /></text>
    <g
       id="text13"
       style="font-style:normal;font-weight:normal;font-size:10.58333397px;line-height:1.25;font-family:sans-serif;letter-spacing:0px;word-spacing:0px;fill:#000000;fill-opacity:1;stroke:none;stroke-width:0.26458335"
       aria-label="nkmakes">
      <path
         id="path43"
         style="font-style:normal;font-variant:normal;font-weight:normal;font-stretch:normal;font-size:8.11388874px;font-family:Bullpen;-inkscape-font-specification:'Bullpen, Normal';font-variant-ligatures:normal;font-variant-caps:normal;font-variant-numeric:normal;text-align:center;writing-mode:lr-tb;text-anchor:middle;stroke-width:0.26458335"
         d="m 4.3815205,292.85598 -0.2434166,1.38748 q -0.024342,0.12171 -0.1541639,0.12171 -0.097367,0 -0.097367,-0.0811 0,-0.008 0,-0.0162 0.00811,-0.008 0.00811,-0.0243 l 0.4868333,-2.71815 q 0.00811,-0.0649 0.00811,-0.12171 0.00811,-0.0649 0.00811,-0.12982 0,-0.34079 -0.2271889,-0.48684 -0.219075,-0.15416 -0.6653388,-0.15416 -0.3488973,0 -0.5842,0.10548 -0.2353028,0.10548 -0.3813528,0.25964 l 0.048683,-0.2921 H 0.73027061 l -0.15416388,0.86008 h 0.38946665 l -0.60042776,3.44028 H 1.866215 L 2.4098456,291.931 q 0.016228,-0.12171 0.064911,-0.1785 0.048683,-0.0649 0.1703917,-0.0649 0.1703916,0 0.1703916,0.1704 0,0.0162 -0.00811,0.0406 0,0.0162 0,0.0324 L 2.37739,294.31648 q -0.024342,0.1136 -0.024342,0.20285 0,0.28399 0.2271888,0.42192 0.2271889,0.13794 0.803275,0.13794 0.5760861,0 0.8276167,-0.17851 0.2515305,-0.1785 0.3164416,-0.53551 l 0.2677584,-1.50919 z m -0.8762999,-2.41793 q 0.2434166,0 0.4949472,0.0893 0.2596444,0.0811 0.4706055,0.24341 0.2109611,0.15417 0.3407833,0.38136 0.1379362,0.21907 0.1379362,0.49494 0,0.15417 -0.024342,0.28399 l -0.1298222,0.73025 h 0.2434166 l 0.3326695,0.38947 -0.3002139,1.71203 q -0.040569,0.21907 -0.1217083,0.37324 -0.081139,0.16227 -0.2353028,0.26776 -0.1541639,0.11359 -0.3894667,0.16227 -0.2271889,0.0568 -0.5760861,0.0568 -0.1947333,0 -0.365125,-0.0243 -0.1622777,-0.0162 -0.3164416,-0.073 -0.1541639,-0.0487 -0.3002139,-0.14605 -0.14605,-0.0974 -0.3002139,-0.25964 l -0.073025,0.43004 H 0.5193095 l -0.40569443,-0.34079 0.55985832,-3.1563 -0.34078333,-0.28399 0.22718889,-1.25765 H 2.8236539 v 0.0568 q 0.3002139,-0.12982 0.6815667,-0.12982 z" />
      <path
         id="path45"
         style="font-style:normal;font-variant:normal;font-weight:normal;font-stretch:normal;font-size:8.11388874px;font-family:Bullpen;-inkscape-font-specification:'Bullpen, Normal';font-variant-ligatures:normal;font-variant-caps:normal;font-variant-numeric:normal;text-align:center;writing-mode:lr-tb;text-anchor:middle;stroke-width:0.26458335"
         d="m 8.3310828,290.7058 -0.1541639,0.86008 h 0.3732389 l -1.0872611,0.93309 0.5679722,-3.22121 H 6.132219 l -0.1541639,0.85196 h 0.3894666 l -0.8519583,4.87644 h 1.5010694 l 0.3002139,-1.71203 0.1622778,-0.12982 0.2271889,1.2252 q 0.032456,0.17039 0.081139,0.30021 0.056797,0.12171 0.1703916,0.21096 0.1135945,0.0893 0.3002139,0.12983 0.1947333,0.0487 0.5030611,0.0487 0.2758722,0 0.4706056,-0.0487 0.2028472,-0.0406 0.3326694,-0.12983 0.1298222,-0.0893 0.1947333,-0.21907 0.073025,-0.13794 0.1054806,-0.31644 l 0.2596442,-1.50919 H 9.7104439 l -0.2434167,1.38748 q -0.024342,0.12171 -0.14605,0.12171 -0.073025,0 -0.097367,-0.10548 l -0.4787195,-2.17453 0.6166556,-0.51928 H 9.84838 l 0.154164,-0.86008 z m 2.2556612,0.19474 -0.227189,1.20897 H 9.7915828 l -0.4868333,0.40569 0.14605,0.65723 0.089253,-0.51118 h 0.8276168 l 0.340783,0.38947 -0.300214,1.71203 q -0.04057,0.21907 -0.129822,0.37324 -0.08114,0.16227 -0.227189,0.26776 -0.1460498,0.11359 -0.3732387,0.16227 -0.2271888,0.0568 -0.5517444,0.0568 -0.5842,0 -0.9249833,-0.21096 -0.3326694,-0.21096 -0.5517444,-0.5274 L 7.5440356,295.5498 H 5.6697273 l -0.4056944,-0.34079 0.8113888,-4.59246 -0.3407833,-0.28399 0.2271889,-1.25765 h 2.3124583 l 0.3407833,0.39758 -0.1947333,1.03858 h 1.8256254 z" />
      <path
         id="path47"
         style="font-style:normal;font-variant:normal;font-weight:normal;font-stretch:normal;font-size:8.11388874px;font-family:Bullpen;-inkscape-font-specification:'Bullpen, Normal';font-variant-ligatures:normal;font-variant-caps:normal;font-variant-numeric:normal;text-align:center;writing-mode:lr-tb;text-anchor:middle;stroke-width:0.26458335"
         d="m 15.732977,290.43805 q 0.235303,0 0.47872,0.0893 0.243416,0.0811 0.43815,0.2353 0.202847,0.14605 0.324555,0.36513 0.129823,0.21096 0.129823,0.47872 0,0.0974 -0.0081,0.17039 -0.0081,0.0649 -0.02434,0.15416 l -0.129822,0.73025 h 0.243416 l 0.340784,0.38947 -0.300214,1.71203 q -0.04057,0.21907 -0.121708,0.37324 -0.08114,0.16227 -0.227189,0.26776 -0.14605,0.11359 -0.373239,0.16227 -0.227189,0.0568 -0.576086,0.0568 -0.194734,0 -0.357011,-0.0162 -0.162278,-0.0162 -0.308328,-0.073 -0.137936,-0.0568 -0.283986,-0.15417 -0.137936,-0.0892 -0.2921,-0.25153 l -0.07303,0.42193 h -3.618795 l -0.405694,-0.34079 0.559858,-3.1563 -0.340783,-0.28399 0.227189,-1.25765 h 2.182636 l 0.0081,0.0568 q 0.137936,-0.0649 0.300214,-0.0974 0.170391,-0.0325 0.381352,-0.0325 0.251531,0 0.470606,0.073 0.219075,0.0649 0.365125,0.18662 0.365125,-0.25964 0.989894,-0.25964 z m 0.795161,2.41793 -0.243416,1.38748 q -0.02434,0.12171 -0.14605,0.12171 -0.09737,0 -0.09737,-0.0811 0,-0.008 0,-0.0162 0.0081,-0.008 0.0081,-0.0243 l 0.478719,-2.71815 q 0.01623,-0.073 0.02434,-0.14605 0.0081,-0.073 0.0081,-0.13794 0,-0.33267 -0.202847,-0.47061 -0.194734,-0.13793 -0.62477,-0.13793 -0.697794,0 -1.02235,0.36512 -0.07303,-0.19473 -0.300214,-0.27587 -0.219075,-0.0892 -0.503061,-0.0892 -0.348897,0 -0.5842,0.10548 -0.235302,0.10548 -0.381352,0.25964 l 0.04868,-0.2921 h -1.785056 l -0.154163,0.86008 h 0.389466 l -0.600428,3.44028 h 1.428045 l 0.54363,-3.07516 q 0.01623,-0.12171 0.06491,-0.1785 0.04868,-0.0649 0.170392,-0.0649 0.170392,0 0.170392,0.1704 0,0.0162 -0.0081,0.0406 0,0.0162 0,0.0324 l -0.551745,3.07516 h 1.436159 l 0.54363,-3.07516 q 0.01623,-0.12171 0.06491,-0.1785 0.04868,-0.0649 0.162278,-0.0649 0.170392,0 0.170392,0.1704 0,0.0162 -0.0081,0.0406 0,0.0162 0,0.0324 l -0.421922,2.38548 q -0.02434,0.12171 -0.02434,0.22719 0,0.27588 0.202847,0.4057 0.210961,0.12982 0.778934,0.12982 0.576086,0 0.811389,-0.17851 0.235302,-0.1785 0.300213,-0.53551 l 0.267759,-1.50919 z" />
      <path
         id="path49"
         style="font-style:normal;font-variant:normal;font-weight:normal;font-stretch:normal;font-size:8.11388874px;font-family:Bullpen;-inkscape-font-specification:'Bullpen, Normal';font-variant-ligatures:normal;font-variant-caps:normal;font-variant-numeric:normal;text-align:center;writing-mode:lr-tb;text-anchor:middle;stroke-width:0.26458335"
         d="m 19.715248,293.89456 q -0.04057,0.2353 -0.235302,0.2353 -0.170392,0 -0.170392,-0.15416 0,-0.0568 0.0081,-0.0811 l 0.381353,-2.15018 q 0.02434,-0.21096 0.235302,-0.21096 0.170392,0 0.170392,0.15416 0,0.0162 -0.0081,0.0325 0,0.008 0,0.0243 z m 0.600428,-3.18876 -0.06491,0.3489 q -0.06491,-0.17039 -0.275872,-0.2921 -0.202847,-0.12982 -0.567972,-0.12982 -0.511175,0 -0.819503,0.28398 -0.300214,0.27588 -0.389467,0.77082 l -0.43815,2.45851 q -0.0081,0.0649 -0.01623,0.12171 0,0.0568 0,0.1136 0,0.69779 0.908756,0.69779 0.373239,0 0.632883,-0.11359 0.267759,-0.1136 0.430036,-0.2921 0.06491,0.17039 0.283986,0.2921 0.227189,0.11359 0.592314,0.11359 0.608542,0 0.868186,-0.17039 0.259645,-0.17851 0.324556,-0.54363 l 0.267758,-1.50919 H 21.63824 l -0.243417,1.38748 q -0.02434,0.12171 -0.14605,0.12171 -0.09737,0 -0.09737,-0.0811 0,-0.008 0,-0.0162 0.0081,-0.008 0.0081,-0.0243 l 0.624769,-3.53766 z m 2.052814,0.19474 -0.316442,1.76071 h 0.243417 l 0.340783,0.38947 -0.300214,1.71203 q -0.04057,0.21907 -0.129822,0.37324 -0.08114,0.16227 -0.243416,0.26776 -0.154164,0.11359 -0.397581,0.16227 -0.243417,0.0568 -0.608542,0.0568 -0.308327,0 -0.54363,-0.0811 -0.227189,-0.0811 -0.365125,-0.21907 -0.18662,0.13793 -0.446264,0.21907 -0.259645,0.0811 -0.576086,0.0811 -0.2921,0 -0.559859,-0.11359 -0.267758,-0.10548 -0.478719,-0.28399 -0.202847,-0.17851 -0.324556,-0.39758 -0.121708,-0.22719 -0.121708,-0.44626 0,-0.15417 0.02434,-0.26776 l 0.430036,-2.45851 q 0.09737,-0.56797 0.446264,-0.89253 0.357011,-0.32455 0.965553,-0.32455 0.235302,0 0.405694,0.0487 0.178506,0.0406 0.316442,0.12982 l 0.01623,-0.10548 h 1.882423 z" />
      <path
         id="path51"
         style="font-style:normal;font-variant:normal;font-weight:normal;font-stretch:normal;font-size:8.11388874px;font-family:Bullpen;-inkscape-font-specification:'Bullpen, Normal';font-variant-ligatures:normal;font-variant-caps:normal;font-variant-numeric:normal;text-align:center;writing-mode:lr-tb;text-anchor:middle;stroke-width:0.26458335"
         d="m 25.588944,290.7058 -0.154163,0.86008 h 0.373238 l -1.087261,0.93309 0.567973,-3.22121 h -1.89865 l -0.154164,0.85196 h 0.389466 l -0.851958,4.87644 h 1.501069 l 0.300214,-1.71203 0.162278,-0.12982 0.227189,1.2252 q 0.03246,0.17039 0.08114,0.30021 0.0568,0.12171 0.170392,0.21096 0.113594,0.0893 0.300213,0.12983 0.194734,0.0487 0.503062,0.0487 0.275872,0 0.470605,-0.0487 0.202847,-0.0406 0.33267,-0.12983 0.129822,-0.0893 0.194733,-0.21907 0.07303,-0.13794 0.10548,-0.31644 l 0.259645,-1.50919 h -0.413808 l -0.243417,1.38748 q -0.02434,0.12171 -0.14605,0.12171 -0.07302,0 -0.09737,-0.10548 l -0.478719,-2.17453 0.616655,-0.51928 h 0.486834 l 0.154164,-0.86008 z m 2.255661,0.19474 -0.227188,1.20897 h -0.567973 l -0.486833,0.40569 0.14605,0.65723 0.08925,-0.51118 h 0.827617 l 0.340783,0.38947 -0.300214,1.71203 q -0.04057,0.21907 -0.129822,0.37324 -0.08114,0.16227 -0.227189,0.26776 -0.14605,0.11359 -0.373239,0.16227 -0.227189,0.0568 -0.551744,0.0568 -0.5842,0 -0.924984,-0.21096 -0.332669,-0.21096 -0.551744,-0.5274 l -0.105481,0.66534 h -1.874308 l -0.405695,-0.34079 0.811389,-4.59246 -0.340783,-0.28399 0.227189,-1.25765 h 2.312458 l 0.340784,0.39758 -0.194734,1.03858 h 1.825625 z" />
      <path
         id="path53"
         style="font-style:normal;font-variant:normal;font-weight:normal;font-stretch:normal;font-size:8.11388874px;font-family:Bullpen;-inkscape-font-specification:'Bullpen, Normal';font-variant-ligatures:normal;font-variant-caps:normal;font-variant-numeric:normal;text-align:center;writing-mode:lr-tb;text-anchor:middle;stroke-width:0.26458335"
         d="m 32.025285,291.66324 q 0.0081,-0.0568 0.0081,-0.10548 0,-0.0568 0,-0.0974 0,-0.41381 -0.365125,-0.61666 -0.357011,-0.21096 -1.176514,-0.21096 -0.900642,0 -1.346906,0.25964 -0.43815,0.25153 -0.535516,0.79516 l -0.421923,2.38549 q -0.0081,0.0568 -0.01623,0.11359 0,0.0487 0,0.0892 0,0.4057 0.373238,0.60855 0.381353,0.19473 1.233312,0.19473 1.639005,0 1.817511,-1.00612 l 0.137936,-0.79516 h -1.363134 l -0.129822,0.73025 q -0.04057,0.2353 -0.316441,0.2353 -0.219075,0 -0.219075,-0.17039 0,-0.0406 0.0081,-0.0649 l 0.18662,-1.03858 h 1.890536 z m -1.64712,0.78705 h -0.39758 l 0.137936,-0.74648 q 0.01623,-0.11359 0.06491,-0.17039 0.04868,-0.0649 0.162278,-0.0649 0.170391,0 0.170391,0.16228 0,0.0568 -0.0081,0.073 z m 0.113595,-2.01224 q 0.340783,0 0.714022,0.073 0.373239,0.073 0.673453,0.2353 0.308328,0.16228 0.503061,0.43004 0.202847,0.26776 0.202847,0.65722 0,0.0568 0,0.12171 0,0.0568 -0.01623,0.1136 l -0.430036,2.40171 q -0.10548,0.5842 -0.5842,0.86818 -0.470605,0.28399 -1.411816,0.28399 -0.405695,0 -0.795162,-0.0811 -0.389466,-0.0811 -0.697794,-0.25153 -0.308328,-0.16228 -0.494947,-0.41381 -0.18662,-0.25964 -0.18662,-0.60043 0,-0.13793 0.02434,-0.2353 l 0.421922,-2.3936 q 0.121709,-0.59231 0.608542,-0.90064 0.494947,-0.30832 1.468614,-0.30832 z" />
      <path
         id="path55"
         style="font-style:normal;font-variant:normal;font-weight:normal;font-stretch:normal;font-size:8.11388874px;font-family:Bullpen;-inkscape-font-specification:'Bullpen, Normal';font-variant-ligatures:normal;font-variant-caps:normal;font-variant-numeric:normal;text-align:center;writing-mode:lr-tb;text-anchor:middle;stroke-width:0.26458335"
         d="m 34.975066,290.43805 q 0.340784,0 0.689681,0.073 0.357011,0.0649 0.640997,0.21908 0.283986,0.15416 0.462492,0.4138 0.186619,0.25153 0.186619,0.62477 0,0.14605 -0.02434,0.2921 l -0.09737,0.55175 h -0.616656 q 0.283987,0.21096 0.381353,0.39758 0.09737,0.18662 0.09737,0.45438 0,0.0568 0,0.10548 0,0.0487 -0.01623,0.1217 l -0.137936,0.77894 q -0.04868,0.2921 -0.178506,0.51117 -0.129822,0.21096 -0.365125,0.3489 -0.235302,0.14605 -0.592313,0.21908 -0.357012,0.073 -0.8763,0.073 -0.405695,0 -0.787048,-0.0811 -0.373239,-0.073 -0.665339,-0.2353 -0.283986,-0.15417 -0.454377,-0.4057 -0.170392,-0.25153 -0.170392,-0.59231 0,-0.13794 0.02434,-0.25964 l 0.09737,-0.61666 h 0.714023 l -0.210962,-0.19473 q -0.2921,-0.22719 -0.2921,-0.61666 0,-0.0649 0,-0.13793 0.0081,-0.073 0.02434,-0.1136 l 0.129822,-0.77082 q 0.04868,-0.27587 0.170392,-0.49495 0.121708,-0.21907 0.357011,-0.36512 0.235303,-0.14605 0.600428,-0.21908 0.373239,-0.0811 0.908755,-0.0811 z m 1.411817,1.22519 q 0.02434,-0.14605 0.02434,-0.26776 0,-0.19473 -0.07303,-0.33267 -0.06491,-0.14605 -0.235303,-0.2353 -0.162278,-0.0974 -0.43815,-0.14605 -0.275872,-0.0487 -0.689681,-0.0487 -0.478719,0 -0.811388,0.0649 -0.33267,0.0568 -0.551745,0.18662 -0.210961,0.12171 -0.324555,0.31644 -0.113595,0.18662 -0.154164,0.43815 l -0.129823,0.77082 q -0.02434,0.11359 -0.02434,0.21096 0,0.3489 0.259644,0.49495 0.259645,0.14605 0.8763,0.21096 0.592314,0.073 0.592314,0.30833 0,0.0162 -0.0081,0.0324 0,0.008 0,0.0243 l -0.04868,0.31645 q -0.01623,0.11359 -0.121708,0.1785 -0.105481,0.0568 -0.259645,0.0568 -0.316442,0 -0.316442,-0.17851 0,-0.0406 0.0081,-0.0568 l 0.07303,-0.37324 h -1.281994 l -0.07303,0.42192 q -0.01623,0.0649 -0.02434,0.12982 -0.0081,0.0568 -0.0081,0.12171 0,0.19473 0.07303,0.34078 0.08114,0.14605 0.259645,0.24342 0.178505,0.0893 0.462491,0.13794 0.2921,0.0487 0.714023,0.0487 0.470605,0 0.795161,-0.0649 0.332669,-0.0568 0.551744,-0.17851 0.219075,-0.12982 0.33267,-0.31644 0.113594,-0.19473 0.162277,-0.44626 l 0.137937,-0.77894 q 0.01623,-0.0487 0.01623,-0.0974 0,-0.0487 0,-0.10548 0,-0.26776 -0.129822,-0.4057 -0.129822,-0.13793 -0.324555,-0.19473 -0.194734,-0.0649 -0.430037,-0.0811 -0.227188,-0.0162 -0.421922,-0.0406 -0.194733,-0.0324 -0.324555,-0.0892 -0.129823,-0.0568 -0.129823,-0.21096 0,-0.0406 0.0081,-0.0568 l 0.04868,-0.30833 q 0.04057,-0.2353 0.381352,-0.2353 0.308328,0 0.308328,0.18662 0,0.0162 -0.0081,0.0243 0,0.008 0,0.0243 l -0.06491,0.36513 h 1.249539 z" />
    </g>
  </g>
</svg>
